<svg version="1.1" id="Layer_1" xmlns="http://www.w3.org/2000/svg" xmlns:xlink="http://www.w3.org/1999/xlink" x="0px" y="0px"
	 width="100%" viewBox="0 0 64 64" enable-background="new 0 0 64 64" xml:space="preserve">
<path fill="#000000" opacity="1.000000" stroke="none" 
	d="
M34.000000,65.000000 
	C22.687866,65.000000 11.875731,65.000000 1.031798,65.000000 
	C1.031798,43.729649 1.031798,22.459242 1.031798,1.094417 
	C22.228270,1.094417 43.457100,1.094417 64.842964,1.094417 
	C64.842964,22.332422 64.842964,43.666092 64.842964,65.000000 
	C54.793522,65.000000 44.646763,65.000000 34.000000,65.000000 
M49.283722,61.999985 
	C50.511051,61.888847 51.738380,61.777714 54.519009,61.525925 
	C52.684769,58.275890 51.687054,55.617390 49.951725,53.590370 
	C43.123600,45.614536 34.273678,44.603443 24.741650,47.142288 
	C18.086805,48.914803 12.672891,56.254662 13.567595,62.000000 
	C25.131147,62.000000 36.731457,62.000000 49.283722,61.999985 
M42.607445,23.086826 
	C40.716301,21.864893 38.973053,20.194746 36.903984,19.512043 
	C32.244637,17.974665 27.667246,18.916090 24.262794,22.404297 
	C20.882883,25.867355 19.952356,30.344116 21.585291,35.066238 
	C23.293051,40.004742 26.774036,42.533272 32.050137,43.046593 
	C41.486153,43.964642 48.940434,33.973232 42.607445,23.086826 
z"/>
<path fill="#FFFFFF" opacity="1.000000" stroke="none" 
	d="
M48.807743,61.999992 
	C36.731457,62.000000 25.131147,62.000000 13.567595,62.000000 
	C12.672891,56.254662 18.086805,48.914803 24.741650,47.142288 
	C34.273678,44.603443 43.123600,45.614536 49.951725,53.590370 
	C51.687054,55.617390 52.684769,58.275890 54.519009,61.525925 
	C51.738380,61.777714 50.511051,61.888847 48.807743,61.999992 
z"/>
<path fill="#FFFFFF" opacity="1.000000" stroke="none" 
	d="
M42.793251,23.437675 
	C48.940434,33.973232 41.486153,43.964642 32.050137,43.046593 
	C26.774036,42.533272 23.293051,40.004742 21.585291,35.066238 
	C19.952356,30.344116 20.882883,25.867355 24.262794,22.404297 
	C27.667246,18.916090 32.244637,17.974665 36.903984,19.512043 
	C38.973053,20.194746 40.716301,21.864893 42.793251,23.437675 
z"/>
</svg>